<svg xmlns="http://www.w3.org/2000/svg" style="display:none" fill="none" stroke="currentColor" stroke-width="1.6" stroke-linecap="round" stroke-linejoin="round">
  <symbol id="d4n-arrow-right" viewBox="0 0 24 24"><path d="M4 12h15M13 6l6 6-6 6"></path></symbol>
  <symbol id="d4n-checkmark-item" viewBox="0 0 24 24"><path d="M5 12.5 10 17.5 19 7"></path></symbol>
  <symbol id="d4n-chevron-down" viewBox="0 0 24 24"><path d="m6 9 6 6 6-6"></path></symbol>
  <symbol id="d4n-chevron-right" viewBox="0 0 24 24"><path d="m9 6 6 6-6 6"></path></symbol>
  <symbol id="d4n-close" viewBox="0 0 24 24"><path d="M6 6l12 12M18 6 6 18"></path></symbol>
  <symbol id="d4n-download" viewBox="0 0 24 24"><path d="M12 4v11M7 11l5 5 5-5"></path><path d="M5 20h14"></path></symbol>
  <symbol id="d4n-duplicate" viewBox="0 0 24 24"><rect x="8" y="8" width="12" height="12" rx="1.5"></rect><path d="M16 8V5a1 1 0 0 0-1-1H5a1 1 0 0 0-1 1v10a1 1 0 0 0 1 1h3"></path></symbol>
  <symbol id="d4n-edit" viewBox="0 0 24 24"><path d="M5 19h3l10-10-3-3L5 16v3Z"></path><path d="m13.5 6.5 3 3"></path></symbol>
  <symbol id="d4n-expand" viewBox="0 0 24 24"><path d="M9 4H4v5M15 4h5v5M9 20H4v-5M15 20h5v-5"></path></symbol>
  <symbol id="d4n-export" viewBox="0 0 24 24"><path d="M12 14V3M8 7l4-4 4 4"></path><path d="M5 13v6a1 1 0 0 0 1 1h12a1 1 0 0 0 1-1v-6"></path></symbol>
  <symbol id="d4n-external" viewBox="0 0 24 24"><path d="M14 4h6v6M20 4l-8 8"></path><path d="M18 14v5a1 1 0 0 1-1 1H5a1 1 0 0 1-1-1V7a1 1 0 0 1 1-1h5"></path></symbol>
  <symbol id="d4n-eye" viewBox="0 0 24 24"><path d="M2.5 12S6 5.5 12 5.5 21.5 12 21.5 12 18 18.5 12 18.5 2.5 12 2.5 12Z"></path><circle cx="12" cy="12" r="2.8"></circle></symbol>
  <symbol id="d4n-filter" viewBox="0 0 24 24"><path d="M3 5h18l-7 8v6l-4-2v-4L3 5Z"></path></symbol>
  <symbol id="d4n-fullscreen" viewBox="0 0 24 24"><path d="M4 9V4h5M20 9V4h-5M4 15v5h5M20 15v5h-5"></path></symbol>
  <symbol id="d4n-link" viewBox="0 0 24 24"><path d="M9 14.5 14.5 9M8 11.5l-2 2a3 3 0 0 0 4.2 4.2l2-2M16 12.5l2-2a3 3 0 0 0-4.2-4.2l-2 2"></path></symbol>
  <symbol id="d4n-more-h" viewBox="0 0 24 24"><circle cx="5" cy="12" r="1.4"></circle><circle cx="12" cy="12" r="1.4"></circle><circle cx="19" cy="12" r="1.4"></circle></symbol>
  <symbol id="d4n-more-v" viewBox="0 0 24 24"><circle cx="12" cy="5" r="1.4"></circle><circle cx="12" cy="12" r="1.4"></circle><circle cx="12" cy="19" r="1.4"></circle></symbol>
  <symbol id="d4n-open-path" viewBox="0 0 24 24"><path d="M3 7a1 1 0 0 1 1-1h5l2 2h9a1 1 0 0 1 1 1v9a1 1 0 0 1-1 1H4a1 1 0 0 1-1-1V7Z"></path><path d="M12 11v5M9.5 13.5 12 16l2.5-2.5"></path></symbol>
  <symbol id="d4n-plus" viewBox="0 0 24 24"><path d="M12 5v14M5 12h14"></path></symbol>
  <symbol id="d4n-presentation" viewBox="0 0 24 24"><rect x="3" y="4" width="18" height="12" rx="1.5"></rect><path d="M12 16v4M8 20h8"></path></symbol>
  <symbol id="d4n-print" viewBox="0 0 24 24"><path d="M6 9V3h12v6M6 17H4a1 1 0 0 1-1-1v-5a1 1 0 0 1 1-1h16a1 1 0 0 1 1 1v5a1 1 0 0 1-1 1h-2"></path><rect x="6" y="14" width="12" height="6" rx="1"></rect></symbol>
  <symbol id="d4n-redo" viewBox="0 0 24 24"><path d="M15 7h5V2"></path><path d="M20 7a8 8 0 1 0 2 5.3"></path></symbol>
  <symbol id="d4n-refresh" viewBox="0 0 24 24"><path d="M4 12a8 8 0 0 1 13.7-5.6L20 8M20 4v4h-4"></path><path d="M20 12a8 8 0 0 1-13.7 5.6L4 16M4 20v-4h4"></path></symbol>
  <symbol id="d4n-rename" viewBox="0 0 24 24"><path d="M4 7V5h10v2M9 5v14M7 19h4"></path><rect x="15" y="11" width="6" height="8" rx="1"></rect></symbol>
  <symbol id="d4n-search" viewBox="0 0 24 24"><circle cx="10.5" cy="10.5" r="6.5"></circle><path d="m20 20-4.5-4.5"></path></symbol>
  <symbol id="d4n-trash" viewBox="0 0 24 24"><path d="M4 7h16M9 7V4.5h6V7M6 7l1 13h10l1-13"></path></symbol>
  <symbol id="d4n-undo" viewBox="0 0 24 24"><path d="M9 7H4V2"></path><path d="M4 7a8 8 0 1 1-2 5.3"></path></symbol>
  <symbol id="d4n-upload" viewBox="0 0 24 24"><path d="M12 20V9M7 13l5-5 5 5"></path><path d="M5 4h14"></path></symbol>
  <symbol id="d4n-zoom-in" viewBox="0 0 24 24"><circle cx="10.5" cy="10.5" r="6.5"></circle><path d="m20 20-4.5-4.5M10.5 7.5v6M7.5 10.5h6"></path></symbol>
  <symbol id="d4n-zoom-out" viewBox="0 0 24 24"><circle cx="10.5" cy="10.5" r="6.5"></circle><path d="m20 20-4.5-4.5M7.5 10.5h6"></path></symbol>
  <symbol id="d4n-cloud" viewBox="0 0 24 24"><path d="M7 18a4 4 0 0 1 0-8 5 5 0 0 1 9.6-1.3A3.5 3.5 0 0 1 17.5 18H7Z"></path></symbol>
  <symbol id="d4n-cluster" viewBox="0 0 24 24"><circle cx="12" cy="5" r="2.5"></circle><circle cx="5" cy="18" r="2.5"></circle><circle cx="19" cy="18" r="2.5"></circle><path d="M12 7.5v4M10.5 13 6.5 16M13.5 13l4 3"></path></symbol>
  <symbol id="d4n-container" viewBox="0 0 24 24"><path d="M3 8.5 12 4l9 4.5v7L12 20l-9-4.5v-7Z"></path><path d="M3 8.5 12 13l9-4.5M12 13v7"></path></symbol>
  <symbol id="d4n-cpu" viewBox="0 0 24 24"><rect x="6" y="6" width="12" height="12" rx="1.5"></rect><rect x="9.5" y="9.5" width="5" height="5" rx="0.5"></rect><path d="M9 3v3M15 3v3M9 18v3M15 18v3M3 9h3M3 15h3M18 9h3M18 15h3"></path></symbol>
  <symbol id="d4n-database" viewBox="0 0 24 24"><ellipse cx="12" cy="6" rx="7" ry="3"></ellipse><path d="M5 6v12c0 1.7 3.1 3 7 3s7-1.3 7-3V6"></path><path d="M5 12c0 1.7 3.1 3 7 3s7-1.3 7-3"></path></symbol>
  <symbol id="d4n-gpu" viewBox="0 0 24 24"><rect x="3" y="6" width="18" height="11" rx="1.5"></rect><circle cx="9" cy="11.5" r="2.5"></circle><path d="M14 9.5h4M14 13.5h4M6 17v2M15 17v2"></path></symbol>
  <symbol id="d4n-memory" viewBox="0 0 24 24"><rect x="3" y="7" width="18" height="10" rx="1.5"></rect><path d="M7 17v3M12 17v3M17 17v3M8 11v2M12 11v2M16 11v2"></path></symbol>
  <symbol id="d4n-server" viewBox="0 0 24 24"><rect x="4" y="4" width="16" height="7" rx="1.5"></rect><rect x="4" y="13" width="16" height="7" rx="1.5"></rect><path d="M8 7.5h.01M8 16.5h.01"></path></symbol>
  <symbol id="d4n-anonymize" viewBox="0 0 24 24"><circle cx="12" cy="9" r="3.5"></circle><path d="M5 20c0-3.6 3.1-6 7-6s7 2.4 7 6"></path><path d="M3 4l18 16"></path></symbol>
  <symbol id="d4n-audit" viewBox="0 0 24 24"><path d="M13 3H6a1 1 0 0 0-1 1v16a1 1 0 0 0 1 1h12a1 1 0 0 0 1-1V9l-6-6Z"></path><path d="M13 3v6h6"></path><path d="m8.5 14 1.8 1.8 3.2-3.3"></path></symbol>
  <symbol id="d4n-branch" viewBox="0 0 24 24"><circle cx="7" cy="6" r="2.5"></circle><circle cx="7" cy="18" r="2.5"></circle><circle cx="17" cy="6" r="2.5"></circle><path d="M7 8.5v7M17 8.5c0 4-4 3.5-7 6.5"></path></symbol>
  <symbol id="d4n-change-kernel" viewBox="0 0 24 24"><path d="M4 8a8 8 0 0 1 14-2M20 6v4h-4"></path><path d="M20 16a8 8 0 0 1-14 2M4 18v-4h4"></path></symbol>
  <symbol id="d4n-clone" viewBox="0 0 24 24"><rect x="9" y="9" width="11" height="11" rx="1.5"></rect><path d="M15 9V5a1 1 0 0 0-1-1H5a1 1 0 0 0-1 1v9a1 1 0 0 0 1 1h4"></path><path d="M14.5 14.5h-3M13 13v3"></path></symbol>
  <symbol id="d4n-commit" viewBox="0 0 24 24"><circle cx="12" cy="12" r="3.5"></circle><path d="M12 3v5.5M12 15.5V21"></path></symbol>
  <symbol id="d4n-hash" viewBox="0 0 24 24"><path d="M9 4 7 20M17 4l-2 16M4 9h16M3 15h16"></path></symbol>
  <symbol id="d4n-history" viewBox="0 0 24 24"><circle cx="12" cy="12" r="8.5"></circle><path d="M12 7v5l3.5 2"></path><path d="M3.5 12H2M5 6 4 5"></path></symbol>
  <symbol id="d4n-promote" viewBox="0 0 24 24"><path d="M12 20V7M7 11l5-5 5 5"></path><path d="M6 4h12"></path></symbol>
  <symbol id="d4n-pull" viewBox="0 0 24 24"><path d="M12 3v11M8 10l4 4 4-4"></path><path d="M5 18a7 7 0 0 0 14 0"></path></symbol>
  <symbol id="d4n-push" viewBox="0 0 24 24"><path d="M12 21V10M8 14l4-4 4 4"></path><path d="M5 6a7 7 0 0 1 14 0"></path></symbol>
  <symbol id="d4n-schedule" viewBox="0 0 24 24"><rect x="4" y="5" width="16" height="16" rx="1.5"></rect><path d="M4 9h16M8 3v4M16 3v4"></path><path d="M12 13v3l2 1"></path></symbol>
  <symbol id="d4n-stash" viewBox="0 0 24 24"><rect x="3" y="9" width="18" height="11" rx="1.5"></rect><path d="M3 9l3-5h12l3 5M9 13h6"></path></symbol>
  <symbol id="d4n-zone-layers" viewBox="0 0 24 24"><path d="M12 4 3 9l9 5 9-5-9-5Z"></path><path d="m3 14 9 5 9-5"></path></symbol>
  <symbol id="d4n-csv" viewBox="0 0 24 24"><path d="M13 3H6a1 1 0 0 0-1 1v16a1 1 0 0 0 1 1h12a1 1 0 0 0 1-1V9l-6-6Z"></path><path d="M13 3v6h6"></path><path d="M8 13h2M8 16h2M13 13h3M13 16h3"></path></symbol>
  <symbol id="d4n-folder-open" viewBox="0 0 24 24"><path d="M3 7a1 1 0 0 1 1-1h4l2 2h8a1 1 0 0 1 1 1v1H6l-2 8H3V7Z"></path><path d="m6 10 1.8 8H20l1.8-8H6Z"></path></symbol>
  <symbol id="d4n-folder" viewBox="0 0 24 24"><path d="M3 6.5a1 1 0 0 1 1-1h4l2 2h9a1 1 0 0 1 1 1V18a1 1 0 0 1-1 1H4a1 1 0 0 1-1-1V6.5Z"></path></symbol>
  <symbol id="d4n-json" viewBox="0 0 24 24"><path d="M9 4c-2 0-2 1.5-2 3s0 3-2 3c2 0 2 1.5 2 3s0 3 2 3"></path><path d="M15 4c2 0 2 1.5 2 3s0 3 2 3c-2 0-2 1.5-2 3s0 3-2 3"></path></symbol>
  <symbol id="d4n-markdown" viewBox="0 0 24 24"><rect x="3" y="6" width="18" height="12" rx="1.5"></rect><path d="M6 15V9l2.5 3L11 9v6M15.5 9v6M15.5 15l-2-2.2M15.5 15l2-2.2"></path></symbol>
  <symbol id="d4n-notebook" viewBox="0 0 24 24"><rect x="5" y="3" width="14" height="18" rx="1.5"></rect><path d="M9 3v18"></path><path d="M12 8h4M12 11h4"></path></symbol>
  <symbol id="d4n-python" viewBox="0 0 24 24"><path d="M9 4h4a3 3 0 0 1 3 3v3a3 3 0 0 1-3 3H8v2a3 3 0 0 0 3 3h2"></path><path d="M8 7h.01"></path></symbol>
  <symbol id="d4n-table" viewBox="0 0 24 24"><rect x="3" y="4" width="18" height="16" rx="1.5"></rect><path d="M3 9h18M3 14.5h18M9 9v11M15 4v16"></path></symbol>
  <symbol id="d4n-terminal-file" viewBox="0 0 24 24"><rect x="3" y="4" width="18" height="16" rx="1.5"></rect><path d="m7 9 3 3-3 3M13 15h4"></path></symbol>
  <symbol id="d4n-text-file" viewBox="0 0 24 24"><path d="M13 3H6a1 1 0 0 0-1 1v16a1 1 0 0 0 1 1h12a1 1 0 0 0 1-1V9l-6-6Z"></path><path d="M13 3v6h6"></path><path d="M8 13h8M8 16.5h6"></path></symbol>
  <symbol id="d4n-yaml-config" viewBox="0 0 24 24"><circle cx="12" cy="12" r="3"></circle><path d="M12 3v2.5M12 18.5V21M21 12h-2.5M5.5 12H3M18 6l-1.8 1.8M7.8 16.2 6 18M18 18l-1.8-1.8M7.8 7.8 6 6"></path></symbol>
  <symbol id="d4n-about-info" viewBox="0 0 24 24"><circle cx="12" cy="12" r="8.5"></circle><path d="M12 11v5M12 8h.01"></path></symbol>
  <symbol id="d4n-key" viewBox="0 0 24 24"><circle cx="8" cy="14" r="4"></circle><path d="m11 11 8-8M16 6l2 2M14 8l2 2"></path></symbol>
  <symbol id="d4n-lock" viewBox="0 0 24 24"><rect x="5" y="10.5" width="14" height="9.5" rx="1.5"></rect><path d="M8 10.5V7a4 4 0 0 1 8 0v3.5"></path></symbol>
  <symbol id="d4n-login" viewBox="0 0 24 24"><path d="M10 12h9M15 8l4 4-4 4"></path><path d="M11 4H5a1 1 0 0 0-1 1v14a1 1 0 0 0 1 1h6"></path></symbol>
  <symbol id="d4n-logout" viewBox="0 0 24 24"><path d="M14 12H5M9 8l-4 4 4 4"></path><path d="M13 4h6a1 1 0 0 1 1 1v14a1 1 0 0 1-1 1h-6"></path></symbol>
  <symbol id="d4n-mfa" viewBox="0 0 24 24"><rect x="6" y="10" width="12" height="9" rx="1.5"></rect><path d="M9 10V7.5a3 3 0 0 1 6 0V10M12 13.5v2"></path></symbol>
  <symbol id="d4n-shield" viewBox="0 0 24 24"><path d="M12 3 5 5.5v5.5c0 4.2 3 7.6 7 9 4-1.4 7-4.8 7-9V5.5L12 3Z"></path><path d="m9 12 2 2 4-4"></path></symbol>
  <symbol id="d4n-support-mail" viewBox="0 0 24 24"><rect x="3" y="6" width="18" height="12" rx="1.5"></rect><path d="m3.5 7 8.5 6 8.5-6"></path></symbol>
  <symbol id="d4n-user" viewBox="0 0 24 24"><circle cx="12" cy="8" r="3.5"></circle><path d="M5 20c0-3.9 3.1-6.5 7-6.5s7 2.6 7 6.5"></path></symbol>
  <symbol id="d4n-users" viewBox="0 0 24 24"><circle cx="9" cy="8" r="3"></circle><path d="M3 19c0-3.3 2.7-5.5 6-5.5s6 2.2 6 5.5"></path><path d="M16 5.5a3 3 0 0 1 0 5.8M21 19c0-2.6-1.5-4.6-3.8-5.2"></path></symbol>
  <symbol id="d4n-julia-dots" viewBox="0 0 24 24"><circle cx="6.5" cy="15.5" r="3" fill="currentColor" stroke="none"></circle><circle cx="17.5" cy="15.5" r="3" fill="currentColor" stroke="none"></circle><circle cx="12" cy="6.5" r="3" fill="currentColor" stroke="none"></circle></symbol>
  <symbol id="d4n-julia" viewBox="0 0 24 24"><circle cx="7" cy="15" r="3"></circle><circle cx="17" cy="15" r="3"></circle><circle cx="12" cy="7" r="3"></circle></symbol>
  <symbol id="d4n-python" viewBox="0 0 24 24"><path d="M12 3c-2.5 0-4 1-4 3v2h4.2"></path><path d="M8 8H6c-2 0-3 1.3-3 4s1 4 3 4h2v-2.2c0-1.6 1.2-2.8 2.8-2.8h3.4c1.5 0 2.8-1.2 2.8-2.8V6c0-2-1.7-3-4-3"></path><circle cx="9.7" cy="5.6" r=".9" fill="currentColor" stroke="none"></circle><path d="M12 21c2.5 0 4-1 4-3v-2h-4.2"></path><path d="M16 16h2c2 0 3-1.3 3-4"></path><circle cx="14.3" cy="18.4" r=".9" fill="currentColor" stroke="none"></circle></symbol>
  <symbol id="d4n-r-lang" viewBox="0 0 24 24"><circle cx="12" cy="12" r="9"></circle><path d="M9 17V8h3.4a2.6 2.6 0 0 1 0 5.2H9M12.5 13.2 15.5 17"></path></symbol>
  <symbol id="d4n-rstudio" viewBox="0 0 24 24"><rect x="3" y="4" width="18" height="16" rx="2"></rect><path d="M3 8h18"></path><circle cx="5.5" cy="6" r=".5" fill="currentColor" stroke="none"></circle><path d="M8.5 17v-6h2.6a2 2 0 0 1 0 4H8.5M11 15l2.5 2"></path></symbol>
  <symbol id="d4n-cell-code" viewBox="0 0 24 24"><rect x="4" y="5" width="16" height="14" rx="1.5"></rect><path d="m9 10-2 2 2 2M15 10l2 2-2 2"></path></symbol>
  <symbol id="d4n-cell-md" viewBox="0 0 24 24"><rect x="4" y="5" width="16" height="14" rx="1.5"></rect><path d="M7 15V9l2.5 3L12 9v6M16 9v6M16 15l-1.8-2M16 15l1.8-2"></path></symbol>
  <symbol id="d4n-kernel-idle" viewBox="0 0 24 24"><circle cx="12" cy="12" r="8.5"></circle><circle cx="12" cy="12" r="2.5"></circle></symbol>
  <symbol id="d4n-launcher" viewBox="0 0 24 24"><rect x="4" y="4" width="7" height="7" rx="1"></rect><rect x="13" y="4" width="7" height="7" rx="1"></rect><rect x="4" y="13" width="7" height="7" rx="1"></rect><path d="M16.5 14v5M14 16.5h5"></path></symbol>
  <symbol id="d4n-new-window" viewBox="0 0 24 24"><rect x="3.5" y="5" width="17" height="14" rx="1.5"></rect><path d="M3.5 9h17M14 13l4 4M18 13v4h-4"></path></symbol>
  <symbol id="d4n-output" viewBox="0 0 24 24"><path d="M5 5h14M5 10h14M5 15h9"></path><path d="m15 18 2 2 4-4"></path></symbol>
  <symbol id="d4n-split-down" viewBox="0 0 24 24"><rect x="3.5" y="5" width="17" height="14" rx="1.5"></rect><path d="M3.5 12h17"></path></symbol>
  <symbol id="d4n-split-right" viewBox="0 0 24 24"><rect x="3.5" y="5" width="17" height="14" rx="1.5"></rect><path d="M12 5v14"></path></symbol>
  <symbol id="d4n-commands" viewBox="0 0 24 24"><rect x="3.5" y="4.5" width="17" height="15" rx="1.5"></rect><path d="M7 9h6M7 12h8M7 15h4"></path></symbol>
  <symbol id="d4n-comments" viewBox="0 0 24 24"><path d="M4 5.5a1 1 0 0 1 1-1h14a1 1 0 0 1 1 1V15a1 1 0 0 1-1 1H9l-4 4V5.5Z"></path></symbol>
  <symbol id="d4n-debugger" viewBox="0 0 24 24"><rect x="7" y="6" width="10" height="12" rx="5"></rect><path d="M3 10h4M17 10h4M3 15h4M17 15h4M9 4l1.5 2.5M15 4l-1.5 2.5"></path></symbol>
  <symbol id="d4n-extensions" viewBox="0 0 24 24"><rect x="4" y="4" width="7" height="7" rx="1"></rect><rect x="13" y="4" width="7" height="7" rx="1"></rect><rect x="4" y="13" width="7" height="7" rx="1"></rect><rect x="13" y="13" width="7" height="7" rx="1"></rect></symbol>
  <symbol id="d4n-files" viewBox="0 0 24 24"><path d="M3 6.5a1 1 0 0 1 1-1h4l2 2h9a1 1 0 0 1 1 1V18a1 1 0 0 1-1 1H4a1 1 0 0 1-1-1V6.5Z"></path></symbol>
  <symbol id="d4n-git" viewBox="0 0 24 24"><circle cx="6" cy="6" r="2.5"></circle><circle cx="6" cy="18" r="2.5"></circle><circle cx="18" cy="9" r="2.5"></circle><path d="M6 8.5v7M8.4 6.5c4 0 7.6.5 7.6 4"></path></symbol>
  <symbol id="d4n-inspector" viewBox="0 0 24 24"><circle cx="11" cy="11" r="7"></circle><path d="m16 16 4.5 4.5M11 8v6M8 11h6"></path></symbol>
  <symbol id="d4n-kernel" viewBox="0 0 24 24"><circle cx="12" cy="12" r="2.5"></circle><circle cx="12" cy="12" r="8.5"></circle><path d="M12 3.5v3M12 17.5v3M3.5 12h3M17.5 12h3"></path></symbol>
  <symbol id="d4n-line-numbers" viewBox="0 0 24 24"><path d="M4 6h2M4 12h2M4 18h2M10 6h10M10 12h10M10 18h10"></path></symbol>
  <symbol id="d4n-running" viewBox="0 0 24 24"><circle cx="12" cy="12" r="8.5"></circle><path d="M12 7.5v4.5l3 2"></path></symbol>
  <symbol id="d4n-settings" viewBox="0 0 24 24"><circle cx="12" cy="12" r="3"></circle><path d="M12 2.5v2.5M12 19v2.5M21.5 12H19M5 12H2.5M18.4 5.6l-1.8 1.8M7.4 16.6l-1.8 1.8M18.4 18.4l-1.8-1.8M7.4 7.4 5.6 5.6"></path></symbol>
  <symbol id="d4n-sidebar-left" viewBox="0 0 24 24"><rect x="3.5" y="4.5" width="17" height="15" rx="1.5"></rect><path d="M9 4.5v15"></path><path d="M5.5 8h1.5M5.5 11h1.5"></path></symbol>
  <symbol id="d4n-sidebar-right" viewBox="0 0 24 24"><rect x="3.5" y="4.5" width="17" height="15" rx="1.5"></rect><path d="M15 4.5v15"></path><path d="M17 8h1.5M17 11h1.5"></path></symbol>
  <symbol id="d4n-toc" viewBox="0 0 24 24"><path d="M4 6h12M4 12h14M4 18h9"></path><circle cx="19.5" cy="6" r="1"></circle><circle cx="21" cy="12" r="1"></circle></symbol>
  <symbol id="d4n-wrap" viewBox="0 0 24 24"><path d="M4 6h16M4 12h13a3 3 0 0 1 0 6h-3M4 18h4M8 16l-2 2 2 2"></path></symbol>
  <symbol id="d4n-check-circle" viewBox="0 0 24 24"><circle cx="12" cy="12" r="8.5"></circle><path d="m8 12 2.8 2.8L16 9"></path></symbol>
  <symbol id="d4n-check" viewBox="0 0 24 24"><path d="M4 12.5 9.5 18 20 6.5"></path></symbol>
  <symbol id="d4n-error-x" viewBox="0 0 24 24"><circle cx="12" cy="12" r="8.5"></circle><path d="m9 9 6 6M15 9l-6 6"></path></symbol>
  <symbol id="d4n-idle-dot" viewBox="0 0 24 24"><circle cx="12" cy="12" r="4.5"></circle></symbol>
  <symbol id="d4n-info" viewBox="0 0 24 24"><circle cx="12" cy="12" r="8.5"></circle><path d="M12 11v5M12 8h.01"></path></symbol>
  <symbol id="d4n-live" viewBox="0 0 24 24"><circle cx="12" cy="12" r="3.5"></circle><path d="M6.5 6.5a8 8 0 0 0 0 11M17.5 6.5a8 8 0 0 1 0 11"></path></symbol>
  <symbol id="d4n-pending" viewBox="0 0 24 24"><circle cx="12" cy="12" r="8.5"></circle><path d="M12 8v4M12 12l3 1.5"></path></symbol>
  <symbol id="d4n-warning" viewBox="0 0 24 24"><path d="M12 3.5 21 19H3L12 3.5Z"></path><path d="M12 9.5v4.5M12 17h.01"></path></symbol>
  <symbol id="d4n-add-cell" viewBox="0 0 24 24"><rect x="4" y="4" width="16" height="16" rx="2"></rect><path d="M12 8.5v7M8.5 12h7"></path></symbol>
  <symbol id="d4n-clear" viewBox="0 0 24 24"><path d="M4 7h16M10 4h4M6 7l1 13h10l1-13"></path></symbol>
  <symbol id="d4n-copy" viewBox="0 0 24 24"><rect x="8" y="8" width="12" height="12" rx="1.5"></rect><path d="M16 8V5a1 1 0 0 0-1-1H5a1 1 0 0 0-1 1v10a1 1 0 0 0 1 1h3"></path></symbol>
  <symbol id="d4n-cut" viewBox="0 0 24 24"><circle cx="6" cy="6" r="2.5"></circle><circle cx="6" cy="18" r="2.5"></circle><path d="M8 7.5 20 18M8 16.5 20 6"></path></symbol>
  <symbol id="d4n-interrupt" viewBox="0 0 24 24"><circle cx="12" cy="12" r="8.5"></circle><rect x="9.5" y="9.5" width="5" height="5" rx="0.8"></rect></symbol>
  <symbol id="d4n-paste" viewBox="0 0 24 24"><path d="M9 4H6a1 1 0 0 0-1 1v15a1 1 0 0 0 1 1h12a1 1 0 0 0 1-1V5a1 1 0 0 0-1-1h-3"></path><rect x="9" y="2.5" width="6" height="3.5" rx="1"></rect></symbol>
  <symbol id="d4n-restart" viewBox="0 0 24 24"><path d="M4 12a8 8 0 1 1 2.3 5.6"></path><path d="M4 8v4h4"></path></symbol>
  <symbol id="d4n-run-all" viewBox="0 0 24 24"><path d="M5 5l7 7-7 7V5Z"></path><path d="M14 5l5 7-5 7"></path></symbol>
  <symbol id="d4n-run" viewBox="0 0 24 24"><path d="M7 4.5 19 12 7 19.5V4.5Z"></path></symbol>
  <symbol id="d4n-save" viewBox="0 0 24 24"><path d="M5 3h11l3 3v15H5V3Z"></path><path d="M8 3v5h7V3M8 21v-6h8v6"></path></symbol>
  <symbol id="d4n-stop" viewBox="0 0 24 24"><rect x="5.5" y="5.5" width="13" height="13" rx="2"></rect></symbol>
</svg>