<svg xmlns="http://www.w3.org/2000/svg" width="24" height="24" viewBox="0 0 24 24" fill="none" stroke="currentColor" stroke-width="1.6" stroke-linecap="round" stroke-linejoin="round"><title>Python</title><path d="M12 3c-2.5 0-4 1-4 3v2h4.2"></path><path d="M8 8H6c-2 0-3 1.3-3 4s1 4 3 4h2v-2.2c0-1.6 1.2-2.8 2.8-2.8h3.4c1.5 0 2.8-1.2 2.8-2.8V6c0-2-1.7-3-4-3"></path><circle cx="9.7" cy="5.6" r=".9" fill="currentColor" stroke="none"></circle><path d="M12 21c2.5 0 4-1 4-3v-2h-4.2"></path><path d="M16 16h2c2 0 3-1.3 3-4"></path><circle cx="14.3" cy="18.4" r=".9" fill="currentColor" stroke="none"></circle></svg>
